<svg width="720" height="162" viewBox="0 0 720 162" fill="none" xmlns="http://www.w3.org/2000/svg">
<path d="M61.0606 156.595H144.46M61.0606 156.595L9.30092 104.643M61.0606 156.595L75.4561 104.643M144.46 156.595L196.22 104.643M144.46 156.595L129.744 104.643M196.22 104.643L197.521 103.337L102.301 7.76294M196.22 104.643H129.744M196.22 104.643H197.521M102.301 7.76294L8 103.337L9.30092 104.643M102.301 7.76294L75.4561 104.643M102.301 7.76294L129.744 104.643M9.30092 104.643H75.4561M75.4561 104.643H129.744" stroke="white" stroke-width="10.4418"/>
<path d="M229.773 127.419V40.116H246.057V127.419H229.773Z" fill="white"/>
<path d="M258.174 127.419V60.4486H270.04L271.05 72.1399H272.186C274.626 68.6664 277.404 65.9978 280.517 64.1339C283.715 62.2701 287.04 60.957 290.49 60.1945C294.025 59.3473 297.391 58.9237 300.589 58.9237C306.732 58.9237 311.824 59.8556 315.863 61.7194C319.987 63.5833 323.101 66.4637 325.205 70.3608C327.308 74.1732 328.36 79.1716 328.36 85.3561V127.419H313.591V87.8977C313.591 84.6784 313.128 82.0097 312.202 79.8917C311.361 77.689 310.141 75.9946 308.542 74.8086C307.027 73.5378 305.175 72.6906 302.987 72.267C300.799 71.7587 298.359 71.5045 295.666 71.5045C291.794 71.5045 288.134 72.3517 284.683 74.0461C281.233 75.6558 278.413 77.9432 276.225 80.9084C274.037 83.7888 272.943 87.1776 272.943 91.0747V127.419H258.174Z" fill="white"/>
<path d="M367.145 128.944C360.244 128.944 354.269 127.673 349.22 125.132C344.255 122.506 340.425 118.608 337.732 113.441C335.039 108.188 333.693 101.707 333.693 93.9975C333.693 86.1186 335.039 79.5952 337.732 74.4273C340.425 69.2595 344.212 65.4047 349.094 62.8631C353.975 60.2368 359.781 58.9237 366.514 58.9237C370.133 58.9237 373.499 59.3473 376.613 60.1945C379.811 60.957 382.714 62.1007 385.323 63.6256C387.932 65.1506 390.162 67.0567 392.013 69.3442H392.897V35.4141H407.667V127.419H395.8L394.412 116.745H393.402C390.372 121.15 386.627 124.285 382.167 126.149C377.707 128.012 372.699 128.944 367.145 128.944ZM370.553 116.363C375.098 116.363 379.053 115.601 382.42 114.076C385.786 112.466 388.353 110.052 390.12 106.832C391.971 103.613 392.897 99.5466 392.897 94.6329V93.3621C392.897 89.6345 392.35 86.4151 391.256 83.7041C390.246 80.9931 388.731 78.748 386.712 76.9689C384.776 75.1898 382.42 73.8343 379.642 72.9024C376.949 71.9705 373.92 71.5045 370.553 71.5045C366.177 71.5045 362.348 72.3093 359.066 73.919C355.784 75.5287 353.259 77.9008 351.492 81.0354C349.725 84.0853 348.841 88.0672 348.841 92.9809V95.0141C348.841 99.8431 349.725 103.825 351.492 106.96C353.343 110.094 355.868 112.466 359.066 114.076C362.348 115.601 366.177 116.363 370.553 116.363Z" fill="white"/>
<path d="M443.125 128.944C434.036 128.944 427.135 126.869 422.422 122.717C417.794 118.481 415.479 111.789 415.479 102.639V60.4486H430.249V99.9702C430.249 103.274 430.67 105.985 431.511 108.103C432.353 110.221 433.573 111.916 435.172 113.186C436.771 114.373 438.664 115.22 440.852 115.728C443.041 116.152 445.439 116.363 448.048 116.363C451.919 116.363 455.58 115.559 459.03 113.949C462.565 112.339 465.426 110.052 467.614 107.087C469.802 104.121 470.896 100.69 470.896 96.7933V60.4486H485.666V127.419H473.8L472.664 115.855H471.528C469.171 119.244 466.394 121.87 463.196 123.734C459.998 125.598 456.674 126.911 453.223 127.673C449.857 128.521 446.491 128.944 443.125 128.944Z" fill="white"/>
<path d="M525.334 128.944C520.453 128.944 515.867 128.521 511.575 127.673C507.283 126.911 503.496 125.725 500.213 124.115C497.015 122.506 494.491 120.43 492.639 117.888C490.788 115.347 489.862 112.339 489.862 108.866C489.862 108.442 489.862 108.061 489.862 107.722C489.946 107.298 490.03 106.917 490.115 106.578H505.263C505.263 106.663 505.221 106.875 505.137 107.214C505.137 107.468 505.137 107.68 505.137 107.849C505.137 110.475 506.104 112.509 508.04 113.949C510.06 115.389 512.627 116.406 515.74 116.999C518.854 117.592 522.136 117.888 525.587 117.888C529.121 117.888 532.445 117.677 535.559 117.253C538.673 116.745 541.198 115.855 543.133 114.584C545.069 113.314 546.037 111.492 546.037 109.12C546.037 106.494 545.027 104.587 543.007 103.401C541.071 102.215 538.21 101.326 534.423 100.733C530.636 100.055 526.092 99.3348 520.79 98.5724C516.582 97.9793 512.753 97.2168 509.302 96.2849C505.936 95.353 502.949 94.1669 500.34 92.7267C497.815 91.2865 495.879 89.4227 494.533 87.1352C493.186 84.8478 492.513 82.0521 492.513 78.748C492.513 75.3592 493.271 72.4364 494.785 69.9796C496.3 67.5227 498.488 65.4894 501.35 63.8798C504.211 62.2701 507.745 61.0417 511.953 60.1945C516.161 59.3473 521.042 58.9237 526.596 58.9237C531.478 58.9237 535.854 59.3473 539.725 60.1945C543.68 61.0417 547.089 62.3125 549.95 64.0069C552.811 65.6165 554.999 67.6074 556.514 69.9796C558.113 72.267 558.913 74.8509 558.913 77.7314C558.913 78.0703 558.913 78.4091 558.913 78.748C558.913 79.0022 558.871 79.3411 558.786 79.7647H543.638V79.1293C543.638 76.7571 542.839 74.9356 541.24 73.6649C539.641 72.3094 537.537 71.3774 534.928 70.8691C532.319 70.2761 529.5 69.9796 526.47 69.9796C525.04 69.9796 523.23 70.0643 521.042 70.2337C518.938 70.3184 516.834 70.615 514.73 71.1233C512.627 71.6316 510.859 72.3517 509.429 73.2836C508.082 74.2155 507.409 75.571 507.409 77.3502C507.409 79.4681 508.461 81.0778 510.565 82.1792C512.669 83.2805 515.404 84.1277 518.77 84.7207C522.22 85.2291 525.923 85.7797 529.879 86.3728C534.086 86.9658 538.042 87.6436 541.745 88.406C545.532 89.1685 548.814 90.2699 551.591 91.7101C554.452 93.0656 556.682 95.0141 558.281 97.5557C559.965 100.013 560.806 103.232 560.806 107.214C560.806 111.196 560.007 114.584 558.408 117.38C556.893 120.091 554.621 122.336 551.591 124.115C548.561 125.81 544.858 127.038 540.482 127.801C536.106 128.563 531.057 128.944 525.334 128.944Z" fill="white"/>
<path d="M591.056 127.419L634.86 40.116H653.416L697.22 127.419H679.294L669.953 108.612H617.187L607.845 127.419H591.056ZM623.751 95.1412H663.389L651.901 71.3774C651.481 70.4455 650.849 69.1324 650.008 67.438C649.25 65.6589 648.451 63.8374 647.609 61.9736C646.852 60.1098 646.137 58.4577 645.463 57.0175C644.79 55.5773 644.327 54.6877 644.075 54.3488H643.065C642.307 56.0432 641.424 58.0341 640.414 60.3216C639.404 62.5243 638.436 64.6422 637.511 66.6755C636.585 68.7088 635.827 70.3184 635.238 71.5045L623.751 95.1412Z" fill="white"/>
<path d="M703.716 127.419V40.116H720V127.419H703.716Z" fill="white"/>
</svg>
